<mxfile host="app.diagrams.net" agent="Mozilla/5.0 (Windows NT 10.0; Win64; x64) AppleWebKit/537.36 (KHTML, like Gecko) Chrome/130.0.0.0 Safari/537.36" version="24.8.1">
  <diagram id="C5RBs43oDa-KdzZeNtuy" name="Page-1">
    <mxGraphModel dx="1969" dy="868" grid="1" gridSize="10" guides="1" tooltips="1" connect="1" arrows="1" fold="1" page="1" pageScale="1" pageWidth="827" pageHeight="1169" math="0" shadow="0">
      <root>
        <mxCell id="WIyWlLk6GJQsqaUBKTNV-0" />
        <mxCell id="WIyWlLk6GJQsqaUBKTNV-1" parent="WIyWlLk6GJQsqaUBKTNV-0" />
        <mxCell id="rreLluVZzKKJRqWr5zo1-43" value="" style="rounded=0;whiteSpace=wrap;html=1;strokeWidth=3;fillColor=#FFE1B5;" parent="WIyWlLk6GJQsqaUBKTNV-1" vertex="1">
          <mxGeometry x="30" y="130" width="620" height="600" as="geometry" />
        </mxCell>
        <mxCell id="rreLluVZzKKJRqWr5zo1-41" value="" style="rounded=0;whiteSpace=wrap;html=1;fillColor=#D5E8D4;strokeWidth=3;" parent="WIyWlLk6GJQsqaUBKTNV-1" vertex="1">
          <mxGeometry x="30" y="585" width="250" height="145" as="geometry" />
        </mxCell>
        <mxCell id="rreLluVZzKKJRqWr5zo1-45" style="edgeStyle=orthogonalEdgeStyle;rounded=0;orthogonalLoop=1;jettySize=auto;html=1;exitX=0.5;exitY=1;exitDx=0;exitDy=0;entryX=1;entryY=0.5;entryDx=0;entryDy=0;" parent="WIyWlLk6GJQsqaUBKTNV-1" source="rreLluVZzKKJRqWr5zo1-3" target="rreLluVZzKKJRqWr5zo1-5" edge="1">
          <mxGeometry relative="1" as="geometry" />
        </mxCell>
        <mxCell id="rreLluVZzKKJRqWr5zo1-3" value="Holovibes" style="rhombus;whiteSpace=wrap;html=1;shadow=0;fontFamily=Helvetica;fontSize=15;align=center;strokeWidth=1;spacing=6;spacingTop=-4;fillColor=none;" parent="WIyWlLk6GJQsqaUBKTNV-1" vertex="1">
          <mxGeometry x="80" y="205" width="130" height="125" as="geometry" />
        </mxCell>
        <mxCell id="rreLluVZzKKJRqWr5zo1-4" value="ThreadWorkerController" style="swimlane;labelBackgroundColor=none;fontSize=15;fontColor=none;startSize=20;fillColor=none;" parent="WIyWlLk6GJQsqaUBKTNV-1" vertex="1">
          <mxGeometry x="280" y="370" width="140" height="160" as="geometry">
            <mxRectangle x="740" y="510" width="190" height="23" as="alternateBounds" />
          </mxGeometry>
        </mxCell>
        <mxCell id="rreLluVZzKKJRqWr5zo1-5" value="&lt;div style=&quot;font-size: 15px&quot;&gt;FrameRecord&lt;br&gt;Worker&lt;/div&gt;" style="rhombus;whiteSpace=wrap;html=1;shadow=0;fontFamily=Helvetica;fontSize=15;align=center;strokeWidth=1;spacing=6;spacingTop=-4;direction=west;fillColor=none;" parent="rreLluVZzKKJRqWr5zo1-4" vertex="1">
          <mxGeometry y="20" width="140" height="140" as="geometry" />
        </mxCell>
        <mxCell id="rreLluVZzKKJRqWr5zo1-7" value="Get" style="text;html=1;align=center;verticalAlign=middle;resizable=0;points=[];autosize=1;strokeColor=none;fillColor=none;" parent="WIyWlLk6GJQsqaUBKTNV-1" vertex="1">
          <mxGeometry x="160" y="554.97" width="30" height="20" as="geometry" />
        </mxCell>
        <mxCell id="rreLluVZzKKJRqWr5zo1-9" value="&lt;div style=&quot;font-size: 15px;&quot;&gt;Holovibes settings&lt;/div&gt;" style="whiteSpace=wrap;html=1;fontSize=15;fillColor=none;" parent="WIyWlLk6GJQsqaUBKTNV-1" vertex="1">
          <mxGeometry x="65" y="600" width="180" height="90" as="geometry" />
        </mxCell>
        <mxCell id="rreLluVZzKKJRqWr5zo1-12" value="ThreadWorkerController" style="swimlane;labelBackgroundColor=none;fontSize=15;fontColor=none;startSize=20;fillColor=none;" parent="WIyWlLk6GJQsqaUBKTNV-1" vertex="1">
          <mxGeometry x="280" y="135" width="140" height="160" as="geometry">
            <mxRectangle x="230" y="520" width="190" height="23" as="alternateBounds" />
          </mxGeometry>
        </mxCell>
        <mxCell id="rreLluVZzKKJRqWr5zo1-13" value="ComputeWorker" style="rhombus;whiteSpace=wrap;html=1;shadow=0;fontFamily=Helvetica;fontSize=15;align=center;strokeWidth=1;spacing=6;spacingTop=-4;direction=west;fillColor=none;" parent="rreLluVZzKKJRqWr5zo1-12" vertex="1">
          <mxGeometry y="20" width="140" height="140" as="geometry" />
        </mxCell>
        <mxCell id="rreLluVZzKKJRqWr5zo1-14" value="Start / Stop" style="text;html=1;align=center;verticalAlign=middle;resizable=0;points=[];autosize=1;strokeColor=none;fillColor=none;" parent="WIyWlLk6GJQsqaUBKTNV-1" vertex="1">
          <mxGeometry x="170" y="422.47" width="70" height="20" as="geometry" />
        </mxCell>
        <mxCell id="rreLluVZzKKJRqWr5zo1-18" value="File" style="rounded=0;whiteSpace=wrap;html=1;fillColor=none;" parent="WIyWlLk6GJQsqaUBKTNV-1" vertex="1">
          <mxGeometry x="295" y="650" width="110" height="55" as="geometry" />
        </mxCell>
        <mxCell id="rreLluVZzKKJRqWr5zo1-36" style="edgeStyle=orthogonalEdgeStyle;rounded=0;orthogonalLoop=1;jettySize=auto;html=1;exitX=0.5;exitY=1;exitDx=0;exitDy=0;entryX=1;entryY=0.5;entryDx=0;entryDy=0;" parent="WIyWlLk6GJQsqaUBKTNV-1" source="rreLluVZzKKJRqWr5zo1-21" target="rreLluVZzKKJRqWr5zo1-18" edge="1">
          <mxGeometry relative="1" as="geometry" />
        </mxCell>
        <mxCell id="rreLluVZzKKJRqWr5zo1-39" style="edgeStyle=orthogonalEdgeStyle;rounded=0;orthogonalLoop=1;jettySize=auto;html=1;exitX=0.75;exitY=1;exitDx=0;exitDy=0;entryX=0.75;entryY=0;entryDx=0;entryDy=0;" parent="WIyWlLk6GJQsqaUBKTNV-1" source="rreLluVZzKKJRqWr5zo1-21" target="rreLluVZzKKJRqWr5zo1-34" edge="1">
          <mxGeometry relative="1" as="geometry">
            <Array as="points">
              <mxPoint x="563" y="640" />
              <mxPoint x="600" y="640" />
              <mxPoint x="600" y="423" />
              <mxPoint x="563" y="423" />
            </Array>
          </mxGeometry>
        </mxCell>
        <mxCell id="rreLluVZzKKJRqWr5zo1-21" value="dequeue" style="rounded=1;whiteSpace=wrap;html=1;fillColor=none;" parent="WIyWlLk6GJQsqaUBKTNV-1" vertex="1">
          <mxGeometry x="480" y="584.97" width="110" height="35" as="geometry" />
        </mxCell>
        <mxCell id="rreLluVZzKKJRqWr5zo1-23" value="Write frames" style="text;html=1;align=center;verticalAlign=middle;resizable=0;points=[];autosize=1;strokeColor=none;fillColor=none;" parent="WIyWlLk6GJQsqaUBKTNV-1" vertex="1">
          <mxGeometry x="435" y="685" width="90" height="20" as="geometry" />
        </mxCell>
        <mxCell id="rreLluVZzKKJRqWr5zo1-25" style="edgeStyle=orthogonalEdgeStyle;rounded=0;orthogonalLoop=1;jettySize=auto;html=1;exitX=1;exitY=0;exitDx=0;exitDy=0;entryX=0.75;entryY=0;entryDx=0;entryDy=0;" parent="WIyWlLk6GJQsqaUBKTNV-1" source="rreLluVZzKKJRqWr5zo1-5" edge="1">
          <mxGeometry relative="1" as="geometry">
            <mxPoint x="197.5" y="600" as="targetPoint" />
          </mxGeometry>
        </mxCell>
        <mxCell id="rreLluVZzKKJRqWr5zo1-26" value="&lt;font style=&quot;font-size: 20px&quot;&gt;&lt;b&gt;State&lt;/b&gt;&lt;/font&gt;" style="text;html=1;strokeColor=none;fillColor=none;align=center;verticalAlign=middle;whiteSpace=wrap;rounded=0;labelBackgroundColor=none;fontSize=14;fontColor=default;" parent="WIyWlLk6GJQsqaUBKTNV-1" vertex="1">
          <mxGeometry x="20" y="685" width="90" height="50" as="geometry" />
        </mxCell>
        <mxCell id="rreLluVZzKKJRqWr5zo1-27" value="&lt;font style=&quot;font-size: 20px&quot;&gt;&lt;b&gt;&lt;font style=&quot;font-size: 20px&quot;&gt;Backend&lt;/font&gt;&lt;/b&gt;&lt;/font&gt;" style="text;html=1;strokeColor=none;fillColor=none;align=center;verticalAlign=middle;whiteSpace=wrap;rounded=0;labelBackgroundColor=none;fontSize=14;fontColor=default;" parent="WIyWlLk6GJQsqaUBKTNV-1" vertex="1">
          <mxGeometry x="40" y="130" width="90" height="50" as="geometry" />
        </mxCell>
        <mxCell id="rreLluVZzKKJRqWr5zo1-28" value="gpu_output_frame" style="text;html=1;align=center;verticalAlign=middle;resizable=0;points=[];autosize=1;strokeColor=none;fillColor=none;" parent="WIyWlLk6GJQsqaUBKTNV-1" vertex="1">
          <mxGeometry x="354" y="318" width="120" height="30" as="geometry" />
        </mxCell>
        <mxCell id="rreLluVZzKKJRqWr5zo1-29" value="" style="strokeWidth=1;html=1;shape=mxgraph.flowchart.direct_data;whiteSpace=wrap;fontSize=11;direction=south;strokeColor=#000000;fillColor=none;" parent="WIyWlLk6GJQsqaUBKTNV-1" vertex="1">
          <mxGeometry x="510" y="484.97" width="40" height="90" as="geometry" />
        </mxCell>
        <mxCell id="rreLluVZzKKJRqWr5zo1-31" value="Open / &lt;br&gt;Close" style="text;html=1;align=center;verticalAlign=middle;resizable=0;points=[];autosize=1;strokeColor=none;fillColor=none;" parent="WIyWlLk6GJQsqaUBKTNV-1" vertex="1">
          <mxGeometry x="295" y="570" width="50" height="30" as="geometry" />
        </mxCell>
        <mxCell id="rreLluVZzKKJRqWr5zo1-32" value="Record&lt;br&gt;Queue" style="text;html=1;align=center;verticalAlign=middle;resizable=0;points=[];autosize=1;strokeColor=none;fillColor=none;" parent="WIyWlLk6GJQsqaUBKTNV-1" vertex="1">
          <mxGeometry x="450" y="540" width="60" height="30" as="geometry" />
        </mxCell>
        <mxCell id="rreLluVZzKKJRqWr5zo1-34" value="wait_frames" style="rounded=1;whiteSpace=wrap;html=1;fillColor=none;" parent="WIyWlLk6GJQsqaUBKTNV-1" vertex="1">
          <mxGeometry x="480" y="442.47" width="110" height="35" as="geometry" />
        </mxCell>
        <mxCell id="rreLluVZzKKJRqWr5zo1-35" style="edgeStyle=orthogonalEdgeStyle;rounded=0;orthogonalLoop=1;jettySize=auto;html=1;entryX=0;entryY=0.5;entryDx=0;entryDy=0;" parent="WIyWlLk6GJQsqaUBKTNV-1" source="rreLluVZzKKJRqWr5zo1-5" target="rreLluVZzKKJRqWr5zo1-34" edge="1">
          <mxGeometry relative="1" as="geometry" />
        </mxCell>
        <mxCell id="rreLluVZzKKJRqWr5zo1-37" style="edgeStyle=orthogonalEdgeStyle;rounded=0;orthogonalLoop=1;jettySize=auto;html=1;exitX=0.5;exitY=0;exitDx=0;exitDy=0;" parent="WIyWlLk6GJQsqaUBKTNV-1" source="rreLluVZzKKJRqWr5zo1-5" target="rreLluVZzKKJRqWr5zo1-18" edge="1">
          <mxGeometry relative="1" as="geometry" />
        </mxCell>
        <mxCell id="rreLluVZzKKJRqWr5zo1-40" value="Loop" style="text;html=1;align=center;verticalAlign=middle;resizable=0;points=[];autosize=1;strokeColor=none;fillColor=none;" parent="WIyWlLk6GJQsqaUBKTNV-1" vertex="1">
          <mxGeometry x="560" y="530" width="40" height="20" as="geometry" />
        </mxCell>
        <mxCell id="rreLluVZzKKJRqWr5zo1-47" style="edgeStyle=orthogonalEdgeStyle;rounded=0;orthogonalLoop=1;jettySize=auto;html=1;exitX=0;exitY=0;exitDx=0;exitDy=0;entryX=0.274;entryY=1.021;entryDx=0;entryDy=0;entryPerimeter=0;" parent="WIyWlLk6GJQsqaUBKTNV-1" source="rreLluVZzKKJRqWr5zo1-5" target="rreLluVZzKKJRqWr5zo1-29" edge="1">
          <mxGeometry relative="1" as="geometry" />
        </mxCell>
        <mxCell id="rreLluVZzKKJRqWr5zo1-48" value="Create" style="text;html=1;strokeColor=none;fillColor=none;align=center;verticalAlign=middle;whiteSpace=wrap;rounded=0;" parent="WIyWlLk6GJQsqaUBKTNV-1" vertex="1">
          <mxGeometry x="420" y="470" width="60" height="30" as="geometry" />
        </mxCell>
        <mxCell id="rreLluVZzKKJRqWr5zo1-51" value="Delete" style="text;html=1;strokeColor=none;fillColor=none;align=center;verticalAlign=middle;whiteSpace=wrap;rounded=0;" parent="WIyWlLk6GJQsqaUBKTNV-1" vertex="1">
          <mxGeometry x="414" y="490" width="60" height="30" as="geometry" />
        </mxCell>
        <mxCell id="0pCNEKJpTT-5YNVpE_Yy-0" value="" style="whiteSpace=wrap;html=1;aspect=fixed;fillColor=#FFE1B5;" vertex="1" parent="WIyWlLk6GJQsqaUBKTNV-1">
          <mxGeometry x="340" y="323" width="20" height="20" as="geometry" />
        </mxCell>
        <mxCell id="0pCNEKJpTT-5YNVpE_Yy-4" value="" style="endArrow=classic;html=1;rounded=0;shape=flexArrow;exitX=0.516;exitY=0.283;exitDx=0;exitDy=0;exitPerimeter=0;endWidth=5.586419753086419;endSize=2.680555555555556;width=3.888888888888889;" edge="1" parent="WIyWlLk6GJQsqaUBKTNV-1" source="rreLluVZzKKJRqWr5zo1-43">
          <mxGeometry width="50" height="50" relative="1" as="geometry">
            <mxPoint x="310" y="380" as="sourcePoint" />
            <mxPoint x="350" y="320" as="targetPoint" />
          </mxGeometry>
        </mxCell>
        <mxCell id="0pCNEKJpTT-5YNVpE_Yy-5" value="" style="endArrow=classic;html=1;rounded=0;shape=flexArrow;exitX=0.516;exitY=0.283;exitDx=0;exitDy=0;exitPerimeter=0;endWidth=5.586419753086419;endSize=2.680555555555556;width=3.888888888888889;" edge="1" parent="WIyWlLk6GJQsqaUBKTNV-1">
          <mxGeometry width="50" height="50" relative="1" as="geometry">
            <mxPoint x="349.86" y="347" as="sourcePoint" />
            <mxPoint x="349.86" y="367" as="targetPoint" />
          </mxGeometry>
        </mxCell>
      </root>
    </mxGraphModel>
  </diagram>
</mxfile>
